<?xml version="1.0" encoding="utf-8"?>
<!-- Generator: Adobe Illustrator 27.8.1, SVG Export Plug-In . SVG Version: 6.00 Build 0)  -->
<svg version="1.1" id="Layer_1" xmlns="http://www.w3.org/2000/svg" xmlns:xlink="http://www.w3.org/1999/xlink" x="0px" y="0px"
	 viewBox="0 0 522 525" style="enable-background:new 0 0 522 525;" xml:space="preserve">
<style type="text/css">
	.st0{fill:#E01E6D;}
	.st1{fill:#C62852;}
	.st2{fill:#F2259B;}
	.st3{fill:#FFFFFF;}
</style>
<g>
	<g>
		<polygon class="st0" points="30,22 62,383.4 273,506.6 273,22 		"/>
	</g>
	<g>
		<polygon class="st1" points="273,22 273,506.6 273.7,507 482,383.4 507,22 		"/>
	</g>
	<g>
		<path class="st2" d="M486.4,46l-22.5,324.8L277.6,481.3L87.9,370.5L59.1,46H486.4 M511,23H34l32,361.4L277.7,508L486,384.4L511,23
			L511,23z"/>
	</g>
	<path class="st3" d="M154.5,246h-28.3V145.9h78.4v22h-50.1V246z M152.4,189.8h46.2v21.9h-46.2V189.8z"/>
	<path class="st3" d="M268.2,248c-7.9,0-15.3-1.3-22.1-3.9c-6.8-2.6-12.7-6.2-17.7-10.9c-5-4.7-8.8-10.2-11.7-16.6
		c-2.8-6.3-4.2-13.3-4.2-20.8c0-7.4,1.4-14.3,4.2-20.6c2.8-6.3,6.7-11.8,11.7-16.5c5-4.7,10.8-8.4,17.6-10.9
		c6.8-2.6,14.2-3.9,22.2-3.9c8,0,15.4,1.3,22.2,3.9c6.8,2.6,12.6,6.2,17.6,10.9c5,4.7,8.8,10.2,11.7,16.4c2.8,6.3,4.2,13.2,4.2,20.7
		c0,7.6-1.4,14.6-4.1,21c-2.8,6.3-6.7,11.8-11.7,16.5c-5,4.7-10.9,8.3-17.7,10.9C283.6,246.7,276.2,248,268.2,248z M268.2,224.6
		c3.8,0,7.4-0.7,10.7-2c3.3-1.3,6.1-3.3,8.6-5.8c2.4-2.5,4.3-5.5,5.7-9c1.4-3.5,2.1-7.4,2.1-11.8c0-4.4-0.7-8.3-2.1-11.8
		c-1.4-3.5-3.3-6.5-5.7-9c-2.4-2.5-5.3-4.5-8.6-5.8c-3.3-1.3-6.8-2-10.7-2c-3.8,0-7.4,0.7-10.7,2c-3.3,1.3-6.2,3.3-8.7,5.8
		c-2.5,2.5-4.4,5.5-5.7,9c-1.3,3.5-2,7.4-2,11.8c0,4.4,0.7,8.3,2,11.8c1.3,3.5,3.2,6.5,5.7,9c2.5,2.5,5.4,4.5,8.7,5.8
		C260.9,223.9,264.4,224.6,268.2,224.6z"/>
	<path class="st3" d="M338.9,246V145.9h45.6c9.2,0,17.1,1.5,23.7,4.4c6.7,3,11.8,7.2,15.4,12.8c3.6,5.6,5.4,12.1,5.4,19.7
		c0,7.7-1.8,14.3-5.4,19.7c-3.6,5.4-8.7,9.6-15.4,12.5c-6.7,2.9-14.6,4.4-23.7,4.4h-30l12.7-12V246H338.9z M367.2,210.7l-12.7-13.2
		h28.3c5.9,0,10.3-1.3,13.3-3.9c3-2.6,4.4-6.2,4.4-10.9c0-4.5-1.5-8-4.4-10.7c-3-2.6-7.4-3.9-13.3-3.9h-28.3l12.7-13V210.7z
		 M400.7,246l-24.9-36.5h30.2l25,36.5H400.7z"/>
	<g>
		<path class="st3" d="M169.4,318l-43.4-16v-13.6l43.4-16v12.9l-38.6,13.7v-7.4l38.6,13.7V318z"/>
		<path class="st3" d="M180.7,326v-61.7h29.2c6.8,0,12.7,1.3,17.9,3.8c5.2,2.5,9.2,6.1,12.1,10.7c2.9,4.6,4.4,10,4.4,16.3
			c0,6.3-1.5,11.8-4.4,16.4c-2.9,4.6-6.9,8.2-12.1,10.7c-5.2,2.5-11.1,3.8-17.9,3.8H180.7z M198.2,312.1H209c3.6,0,6.7-0.7,9.3-2
			c2.6-1.3,4.7-3.3,6.1-5.9c1.5-2.6,2.2-5.6,2.2-9c0-3.6-0.7-6.6-2.2-9.1c-1.5-2.5-3.5-4.4-6.1-5.8c-2.6-1.4-5.7-2-9.3-2h-10.8
			V312.1z"/>
		<path class="st3" d="M270.7,312.4H303V326h-49.4v-61.7h48.3v13.6h-31.1V312.4z M269.5,288.2h28.6v13h-28.6V288.2z"/>
		<path class="st3" d="M331.6,326l-26.3-61.7H324l22.3,53.4h-11.1l22.7-53.4h17.3L348.8,326H331.6z"/>
		<path class="st3" d="M379.1,318v-12.9l38.6-13.7v7.4l-38.6-13.7v-12.9l43.4,16v13.6L379.1,318z"/>
	</g>
</g>
</svg>
